# xmcd
#
# Track frame offsets: 
#        150
#        18240
#        37173
#        60534
#        78128
#        100975
#        125913
#        139878
#        162877
#        178132
#        196726
#        230422
#
# Disc length: 3332 seconds
#
# Revision: 2
# Processed by: cddbd v1.5.2PL0 Copyright (c) Steve Scherf et al.
# Submitted via: ExactAudioCopy v0.99pb4
#
DISCID=9f0d020c
DTITLE=Øernes blues band - Playin' the blues
DYEAR=2003
DGENRE=Blues
TTITLE0=Playin' the blues
TTITLE1=Everyday I have the blues
TTITLE2=Evil thing
TTITLE3=Need Your love so bad
TTITLE4=Let the good times roll
TTITLE5=I´ll play the blues for You
TTITLE6=T-bone shuffle
TTITLE7=Like it this way
TTITLE8=Out of here
TTITLE9=Got to move
TTITLE10=Cold cold feeling
TTITLE11=Jesus just left Chicago
EXTD=YEAR: 2003
EXTT0=
EXTT1=
EXTT2=
EXTT3=
EXTT4=
EXTT5=
EXTT6=
EXTT7=
EXTT8=
EXTT9=
EXTT10=
EXTT11=
PLAYORDER=
